<?xml version="1.0" standalone="no"?>
<!DOCTYPE svg PUBLIC "-//W3C//DTD SVG 20010904//EN"
 "http://www.w3.org/TR/2001/REC-SVG-20010904/DTD/svg10.dtd">
<svg version="1.0" xmlns="http://www.w3.org/2000/svg"
 width="260.000000pt" height="260.000000pt" viewBox="0 0 260.000000 260.000000"
 preserveAspectRatio="xMidYMid meet">
<metadata>
Created by potrace 1.14, written by Peter Selinger 2001-2017
</metadata>
<g transform="translate(0.000000,260.000000) scale(0.100000,-0.100000)"
fill="#000000" stroke="none">
<path d="M589 2156 c-163 -34 -273 -110 -336 -231 -38 -74 -51 -134 -48 -227
3 -103 16 -153 56 -209 43 -59 78 -90 259 -226 167 -126 276 -227 305 -283 27
-52 44 -133 40 -200 -5 -115 -84 -198 -194 -207 -44 -3 -63 0 -88 16 -85 54
-153 216 -187 446 -13 85 -17 95 -43 101 -83 21 -158 2 -212 -54 l-34 -35 6
-82 c7 -98 45 -218 88 -281 58 -85 182 -163 314 -198 82 -21 247 -15 336 13
108 34 173 90 230 195 75 139 30 339 -110 489 -34 36 -138 124 -230 196 -174
135 -204 165 -247 252 -74 146 -14 313 135 382 86 40 193 44 257 10 85 -45
131 -136 148 -292 10 -85 51 -136 102 -126 11 2 26 4 34 5 39 2 53 28 56 102
3 81 -21 170 -68 243 -61 97 -184 188 -270 200 -91 13 -237 13 -299 1z"/>
<path d="M1821 2125 c-109 -31 -195 -89 -272 -185 -166 -205 -253 -733 -174
-1057 21 -87 83 -216 129 -269 128 -149 408 -189 609 -88 110 56 225 200 271
340 25 77 27 92 28 180 0 105 -28 162 -88 176 -42 10 -47 1 -59 -112 -30 -281
-127 -424 -322 -475 -78 -20 -108 -19 -161 8 -72 35 -108 102 -138 252 -13 69
-13 412 0 478 7 32 23 127 31 179 20 126 102 313 165 373 27 26 38 30 91 30
84 0 98 -17 149 -180 22 -70 49 -89 147 -105 37 -6 68 -5 103 4 104 27 114 69
45 191 -50 86 -99 146 -157 189 -90 67 -286 102 -397 71z"/>
</g>
</svg>
